<mxfile host="app.diagrams.net" modified="2024-01-26T01:14:59.261Z" agent="Mozilla/5.0 (Macintosh; Intel Mac OS X 10_15_7) AppleWebKit/537.36 (KHTML, like Gecko) Chrome/120.0.0.0 Safari/537.36" etag="nItLf6CpaStegsssQwkP" version="23.0.2" type="github">
  <diagram id="C5RBs43oDa-KdzZeNtuy" name="Page-1">
    <mxGraphModel dx="1025" dy="707" grid="1" gridSize="10" guides="1" tooltips="1" connect="1" arrows="1" fold="1" page="1" pageScale="1" pageWidth="827" pageHeight="1169" math="0" shadow="0">
      <root>
        <mxCell id="WIyWlLk6GJQsqaUBKTNV-0" />
        <mxCell id="WIyWlLk6GJQsqaUBKTNV-1" parent="WIyWlLk6GJQsqaUBKTNV-0" />
        <mxCell id="TgfNzg3K9k1XrxcihakO-2" style="edgeStyle=orthogonalEdgeStyle;rounded=0;orthogonalLoop=1;jettySize=auto;html=1;exitX=0.5;exitY=1;exitDx=0;exitDy=0;entryX=0.5;entryY=0;entryDx=0;entryDy=0;" parent="WIyWlLk6GJQsqaUBKTNV-1" source="TgfNzg3K9k1XrxcihakO-0" target="TgfNzg3K9k1XrxcihakO-1" edge="1">
          <mxGeometry relative="1" as="geometry" />
        </mxCell>
        <mxCell id="TgfNzg3K9k1XrxcihakO-0" value="Start" style="ellipse;whiteSpace=wrap;html=1;" parent="WIyWlLk6GJQsqaUBKTNV-1" vertex="1">
          <mxGeometry x="66" y="120" width="120" height="80" as="geometry" />
        </mxCell>
        <mxCell id="TgfNzg3K9k1XrxcihakO-6" style="edgeStyle=orthogonalEdgeStyle;rounded=0;orthogonalLoop=1;jettySize=auto;html=1;exitX=0.5;exitY=1;exitDx=0;exitDy=0;entryX=0.5;entryY=0;entryDx=0;entryDy=0;" parent="WIyWlLk6GJQsqaUBKTNV-1" source="TgfNzg3K9k1XrxcihakO-1" target="TgfNzg3K9k1XrxcihakO-5" edge="1">
          <mxGeometry relative="1" as="geometry" />
        </mxCell>
        <mxCell id="TgfNzg3K9k1XrxcihakO-1" value="Get credentials from .env file" style="rounded=1;whiteSpace=wrap;html=1;fontSize=11;glass=0;strokeWidth=1;shadow=0;" parent="WIyWlLk6GJQsqaUBKTNV-1" vertex="1">
          <mxGeometry x="51" y="250" width="150" height="30" as="geometry" />
        </mxCell>
        <mxCell id="TgfNzg3K9k1XrxcihakO-7" style="edgeStyle=orthogonalEdgeStyle;rounded=0;orthogonalLoop=1;jettySize=auto;html=1;exitX=1;exitY=0.5;exitDx=0;exitDy=0;entryX=0.5;entryY=1;entryDx=0;entryDy=0;" parent="WIyWlLk6GJQsqaUBKTNV-1" source="TgfNzg3K9k1XrxcihakO-5" target="TgfNzg3K9k1XrxcihakO-10" edge="1">
          <mxGeometry relative="1" as="geometry">
            <mxPoint x="226" y="375" as="targetPoint" />
          </mxGeometry>
        </mxCell>
        <mxCell id="TgfNzg3K9k1XrxcihakO-9" value="No" style="edgeLabel;html=1;align=center;verticalAlign=middle;resizable=0;points=[];" parent="TgfNzg3K9k1XrxcihakO-7" vertex="1" connectable="0">
          <mxGeometry x="0.0129" relative="1" as="geometry">
            <mxPoint x="-21" as="offset" />
          </mxGeometry>
        </mxCell>
        <mxCell id="TgfNzg3K9k1XrxcihakO-17" style="edgeStyle=orthogonalEdgeStyle;rounded=0;orthogonalLoop=1;jettySize=auto;html=1;exitX=0.5;exitY=1;exitDx=0;exitDy=0;entryX=0.5;entryY=0;entryDx=0;entryDy=0;" parent="WIyWlLk6GJQsqaUBKTNV-1" source="TgfNzg3K9k1XrxcihakO-5" target="n75NDWezAnSLOP8QhScl-0" edge="1">
          <mxGeometry relative="1" as="geometry">
            <mxPoint x="220" y="440" as="targetPoint" />
          </mxGeometry>
        </mxCell>
        <mxCell id="TgfNzg3K9k1XrxcihakO-82" value="Yes" style="edgeLabel;html=1;align=center;verticalAlign=middle;resizable=0;points=[];" parent="TgfNzg3K9k1XrxcihakO-17" vertex="1" connectable="0">
          <mxGeometry x="-0.2267" relative="1" as="geometry">
            <mxPoint y="1" as="offset" />
          </mxGeometry>
        </mxCell>
        <mxCell id="TgfNzg3K9k1XrxcihakO-5" value="Try to connect" style="rhombus;whiteSpace=wrap;html=1;fontSize=14;" parent="WIyWlLk6GJQsqaUBKTNV-1" vertex="1">
          <mxGeometry x="81" y="340" width="90" height="90" as="geometry" />
        </mxCell>
        <mxCell id="TgfNzg3K9k1XrxcihakO-11" style="edgeStyle=orthogonalEdgeStyle;rounded=0;orthogonalLoop=1;jettySize=auto;html=1;exitX=0.5;exitY=0;exitDx=0;exitDy=0;entryX=1;entryY=0.5;entryDx=0;entryDy=0;" parent="WIyWlLk6GJQsqaUBKTNV-1" source="TgfNzg3K9k1XrxcihakO-10" target="TgfNzg3K9k1XrxcihakO-1" edge="1">
          <mxGeometry relative="1" as="geometry" />
        </mxCell>
        <mxCell id="TgfNzg3K9k1XrxcihakO-10" value="Print &quot;Authantication failed. Please check the credentials in .env file" style="shape=parallelogram;perimeter=parallelogramPerimeter;fixedSize=1;align=center;fontSize=11;verticalAlign=middle;whiteSpace=wrap;html=1;fontFamily=Helvetica;fontStyle=0;spacingTop=2;spacing=21;" parent="WIyWlLk6GJQsqaUBKTNV-1" vertex="1">
          <mxGeometry x="218" y="290" width="168" height="70" as="geometry" />
        </mxCell>
        <mxCell id="TgfNzg3K9k1XrxcihakO-19" style="edgeStyle=orthogonalEdgeStyle;rounded=0;orthogonalLoop=1;jettySize=auto;html=1;exitX=0.5;exitY=1;exitDx=0;exitDy=0;entryX=0.5;entryY=0;entryDx=0;entryDy=0;" parent="WIyWlLk6GJQsqaUBKTNV-1" source="TgfNzg3K9k1XrxcihakO-16" target="TgfNzg3K9k1XrxcihakO-18" edge="1">
          <mxGeometry relative="1" as="geometry" />
        </mxCell>
        <mxCell id="TgfNzg3K9k1XrxcihakO-16" value="Change directory to where the files are" style="rounded=1;whiteSpace=wrap;html=1;fontSize=10;glass=0;strokeWidth=1;shadow=0;spacingTop=4;spacing=5;" parent="WIyWlLk6GJQsqaUBKTNV-1" vertex="1">
          <mxGeometry x="66" y="560" width="120" height="40" as="geometry" />
        </mxCell>
        <mxCell id="n75NDWezAnSLOP8QhScl-15" value="" style="edgeStyle=orthogonalEdgeStyle;rounded=0;orthogonalLoop=1;jettySize=auto;html=1;entryX=0.5;entryY=0;entryDx=0;entryDy=0;" edge="1" parent="WIyWlLk6GJQsqaUBKTNV-1" source="TgfNzg3K9k1XrxcihakO-18" target="n75NDWezAnSLOP8QhScl-24">
          <mxGeometry relative="1" as="geometry">
            <mxPoint x="270" y="670" as="targetPoint" />
          </mxGeometry>
        </mxCell>
        <mxCell id="TgfNzg3K9k1XrxcihakO-18" value="Get root directory of project" style="rounded=1;whiteSpace=wrap;html=1;fontSize=12;glass=0;strokeWidth=1;shadow=0;" parent="WIyWlLk6GJQsqaUBKTNV-1" vertex="1">
          <mxGeometry x="44.5" y="630" width="164" height="20" as="geometry" />
        </mxCell>
        <mxCell id="TgfNzg3K9k1XrxcihakO-35" style="edgeStyle=orthogonalEdgeStyle;rounded=0;orthogonalLoop=1;jettySize=auto;html=1;exitX=0.5;exitY=1;exitDx=0;exitDy=0;entryX=0.5;entryY=0;entryDx=0;entryDy=0;" parent="WIyWlLk6GJQsqaUBKTNV-1" source="TgfNzg3K9k1XrxcihakO-20" target="n75NDWezAnSLOP8QhScl-34" edge="1">
          <mxGeometry relative="1" as="geometry">
            <mxPoint x="313" y="1210" as="targetPoint" />
            <Array as="points">
              <mxPoint x="250" y="1200" />
              <mxPoint x="250" y="1200" />
              <mxPoint x="250" y="1210" />
              <mxPoint x="250" y="1210" />
            </Array>
          </mxGeometry>
        </mxCell>
        <mxCell id="TgfNzg3K9k1XrxcihakO-83" value="Yes" style="edgeLabel;html=1;align=center;verticalAlign=middle;resizable=0;points=[];" parent="TgfNzg3K9k1XrxcihakO-35" vertex="1" connectable="0">
          <mxGeometry x="-0.0917" relative="1" as="geometry">
            <mxPoint x="-1" y="-8" as="offset" />
          </mxGeometry>
        </mxCell>
        <mxCell id="TgfNzg3K9k1XrxcihakO-42" value="" style="edgeStyle=orthogonalEdgeStyle;rounded=0;orthogonalLoop=1;jettySize=auto;html=1;entryX=0;entryY=0.5;entryDx=0;entryDy=0;" parent="WIyWlLk6GJQsqaUBKTNV-1" source="TgfNzg3K9k1XrxcihakO-20" target="TgfNzg3K9k1XrxcihakO-89" edge="1">
          <mxGeometry relative="1" as="geometry">
            <mxPoint x="367" y="1225" as="targetPoint" />
          </mxGeometry>
        </mxCell>
        <mxCell id="TgfNzg3K9k1XrxcihakO-84" value="No" style="edgeLabel;html=1;align=center;verticalAlign=middle;resizable=0;points=[];" parent="TgfNzg3K9k1XrxcihakO-42" vertex="1" connectable="0">
          <mxGeometry x="-0.2777" y="2" relative="1" as="geometry">
            <mxPoint x="2" y="2" as="offset" />
          </mxGeometry>
        </mxCell>
        <mxCell id="TgfNzg3K9k1XrxcihakO-20" value="Last item?" style="rhombus;whiteSpace=wrap;html=1;fontSize=11;" parent="WIyWlLk6GJQsqaUBKTNV-1" vertex="1">
          <mxGeometry x="205.25" y="1080" width="90" height="90" as="geometry" />
        </mxCell>
        <mxCell id="n75NDWezAnSLOP8QhScl-32" style="edgeStyle=orthogonalEdgeStyle;rounded=0;orthogonalLoop=1;jettySize=auto;html=1;exitX=0;exitY=0.5;exitDx=0;exitDy=0;entryX=0.5;entryY=0;entryDx=0;entryDy=0;" edge="1" parent="WIyWlLk6GJQsqaUBKTNV-1" source="TgfNzg3K9k1XrxcihakO-30" target="TgfNzg3K9k1XrxcihakO-20">
          <mxGeometry relative="1" as="geometry">
            <Array as="points">
              <mxPoint x="573" y="1050" />
              <mxPoint x="573" y="1050" />
            </Array>
          </mxGeometry>
        </mxCell>
        <mxCell id="TgfNzg3K9k1XrxcihakO-30" value="Get next file" style="rounded=1;whiteSpace=wrap;html=1;fontSize=12;glass=0;strokeWidth=1;shadow=0;" parent="WIyWlLk6GJQsqaUBKTNV-1" vertex="1">
          <mxGeometry x="520.0000000000001" y="1040" width="110" height="20" as="geometry" />
        </mxCell>
        <mxCell id="TgfNzg3K9k1XrxcihakO-34" value="End" style="ellipse;whiteSpace=wrap;html=1;" parent="WIyWlLk6GJQsqaUBKTNV-1" vertex="1">
          <mxGeometry x="189" y="1400" width="120" height="80" as="geometry" />
        </mxCell>
        <mxCell id="TgfNzg3K9k1XrxcihakO-79" style="edgeStyle=orthogonalEdgeStyle;rounded=0;orthogonalLoop=1;jettySize=auto;html=1;exitX=0.5;exitY=0;exitDx=0;exitDy=0;endArrow=none;endFill=0;entryX=1;entryY=0.5;entryDx=0;entryDy=0;" parent="WIyWlLk6GJQsqaUBKTNV-1" source="TgfNzg3K9k1XrxcihakO-36" edge="1" target="TgfNzg3K9k1XrxcihakO-30">
          <mxGeometry relative="1" as="geometry">
            <mxPoint x="1048.42" y="1080" as="targetPoint" />
            <Array as="points">
              <mxPoint x="1030" y="1135" />
              <mxPoint x="1030" y="1050" />
            </Array>
          </mxGeometry>
        </mxCell>
        <mxCell id="TgfNzg3K9k1XrxcihakO-36" value="Get file from remote server" style="rounded=1;whiteSpace=wrap;html=1;fontSize=12;glass=0;strokeWidth=1;shadow=0;" parent="WIyWlLk6GJQsqaUBKTNV-1" vertex="1">
          <mxGeometry x="970.4200000000001" y="1115" width="120" height="40" as="geometry" />
        </mxCell>
        <mxCell id="TgfNzg3K9k1XrxcihakO-47" style="edgeStyle=orthogonalEdgeStyle;rounded=0;orthogonalLoop=1;jettySize=auto;html=1;entryX=1;entryY=0.5;entryDx=0;entryDy=0;exitX=1;exitY=0.5;exitDx=0;exitDy=0;" parent="WIyWlLk6GJQsqaUBKTNV-1" source="TgfNzg3K9k1XrxcihakO-89" target="TgfNzg3K9k1XrxcihakO-30" edge="1">
          <mxGeometry relative="1" as="geometry">
            <mxPoint x="483" y="1134" as="sourcePoint" />
            <Array as="points">
              <mxPoint x="643" y="1125" />
              <mxPoint x="643" y="1050" />
            </Array>
          </mxGeometry>
        </mxCell>
        <mxCell id="TgfNzg3K9k1XrxcihakO-48" value="Yes" style="edgeLabel;html=1;align=center;verticalAlign=middle;resizable=0;points=[];" parent="TgfNzg3K9k1XrxcihakO-47" vertex="1" connectable="0">
          <mxGeometry x="-0.3284" y="1" relative="1" as="geometry">
            <mxPoint x="-58" y="1" as="offset" />
          </mxGeometry>
        </mxCell>
        <mxCell id="TgfNzg3K9k1XrxcihakO-75" style="edgeStyle=orthogonalEdgeStyle;rounded=0;orthogonalLoop=1;jettySize=auto;html=1;exitX=0.5;exitY=1;exitDx=0;exitDy=0;entryX=0.5;entryY=0;entryDx=0;entryDy=0;" parent="WIyWlLk6GJQsqaUBKTNV-1" source="TgfNzg3K9k1XrxcihakO-89" target="n75NDWezAnSLOP8QhScl-10" edge="1">
          <mxGeometry relative="1" as="geometry">
            <mxPoint x="771" y="1242.5" as="sourcePoint" />
            <mxPoint x="416" y="1320" as="targetPoint" />
          </mxGeometry>
        </mxCell>
        <mxCell id="TgfNzg3K9k1XrxcihakO-76" value="No" style="edgeLabel;html=1;align=center;verticalAlign=middle;resizable=0;points=[];" parent="TgfNzg3K9k1XrxcihakO-75" vertex="1" connectable="0">
          <mxGeometry x="-0.037" y="2" relative="1" as="geometry">
            <mxPoint x="-2" y="-34" as="offset" />
          </mxGeometry>
        </mxCell>
        <mxCell id="TgfNzg3K9k1XrxcihakO-64" style="edgeStyle=orthogonalEdgeStyle;rounded=0;orthogonalLoop=1;jettySize=auto;html=1;exitX=1;exitY=0.5;exitDx=0;exitDy=0;entryX=1;entryY=0.5;entryDx=0;entryDy=0;" parent="WIyWlLk6GJQsqaUBKTNV-1" source="TgfNzg3K9k1XrxcihakO-54" edge="1" target="TgfNzg3K9k1XrxcihakO-85">
          <mxGeometry relative="1" as="geometry">
            <mxPoint x="1178.42" y="1267.5" as="targetPoint" />
            <Array as="points">
              <mxPoint x="990.4200000000001" y="1316" />
              <mxPoint x="990.4200000000001" y="1273" />
              <mxPoint x="956.4200000000001" y="1273" />
            </Array>
          </mxGeometry>
        </mxCell>
        <mxCell id="TgfNzg3K9k1XrxcihakO-54" value="Calculate checksum of remote file" style="rounded=1;whiteSpace=wrap;html=1;fontSize=12;glass=0;strokeWidth=1;shadow=0;spacing=1;verticalAlign=middle;" parent="WIyWlLk6GJQsqaUBKTNV-1" vertex="1">
          <mxGeometry x="760.4200000000001" y="1302.5" width="196" height="27.5" as="geometry" />
        </mxCell>
        <mxCell id="TgfNzg3K9k1XrxcihakO-65" style="edgeStyle=orthogonalEdgeStyle;rounded=0;orthogonalLoop=1;jettySize=auto;html=1;entryX=0.5;entryY=1;entryDx=0;entryDy=0;exitX=0.5;exitY=0;exitDx=0;exitDy=0;" parent="WIyWlLk6GJQsqaUBKTNV-1" source="TgfNzg3K9k1XrxcihakO-85" target="TgfNzg3K9k1XrxcihakO-60" edge="1">
          <mxGeometry relative="1" as="geometry">
            <mxPoint x="840.4200000000001" y="1210" as="sourcePoint" />
            <Array as="points">
              <mxPoint x="858.4200000000001" y="1210" />
              <mxPoint x="858.4200000000001" y="1210" />
            </Array>
          </mxGeometry>
        </mxCell>
        <mxCell id="TgfNzg3K9k1XrxcihakO-62" style="edgeStyle=orthogonalEdgeStyle;rounded=0;orthogonalLoop=1;jettySize=auto;html=1;exitX=0.5;exitY=0;exitDx=0;exitDy=0;endArrow=none;endFill=0;entryX=1;entryY=0.5;entryDx=0;entryDy=0;" parent="WIyWlLk6GJQsqaUBKTNV-1" source="TgfNzg3K9k1XrxcihakO-60" edge="1" target="TgfNzg3K9k1XrxcihakO-30">
          <mxGeometry relative="1" as="geometry">
            <mxPoint x="958.4200000000001" y="1080" as="targetPoint" />
            <Array as="points">
              <mxPoint x="858" y="1050" />
            </Array>
          </mxGeometry>
        </mxCell>
        <mxCell id="TgfNzg3K9k1XrxcihakO-63" value="Yes" style="edgeLabel;html=1;align=center;verticalAlign=middle;resizable=0;points=[];" parent="TgfNzg3K9k1XrxcihakO-62" vertex="1" connectable="0">
          <mxGeometry x="-0.0812" y="-1" relative="1" as="geometry">
            <mxPoint x="78" y="71" as="offset" />
          </mxGeometry>
        </mxCell>
        <mxCell id="n75NDWezAnSLOP8QhScl-38" value="Yes" style="edgeLabel;html=1;align=center;verticalAlign=middle;resizable=0;points=[];" vertex="1" connectable="0" parent="TgfNzg3K9k1XrxcihakO-62">
          <mxGeometry x="-0.8429" y="-1" relative="1" as="geometry">
            <mxPoint x="-3" as="offset" />
          </mxGeometry>
        </mxCell>
        <mxCell id="TgfNzg3K9k1XrxcihakO-66" style="edgeStyle=orthogonalEdgeStyle;rounded=0;orthogonalLoop=1;jettySize=auto;html=1;exitX=1;exitY=0.5;exitDx=0;exitDy=0;entryX=0;entryY=0.5;entryDx=0;entryDy=0;" parent="WIyWlLk6GJQsqaUBKTNV-1" source="TgfNzg3K9k1XrxcihakO-60" target="TgfNzg3K9k1XrxcihakO-36" edge="1">
          <mxGeometry relative="1" as="geometry" />
        </mxCell>
        <mxCell id="TgfNzg3K9k1XrxcihakO-67" value="No" style="edgeLabel;html=1;align=center;verticalAlign=middle;resizable=0;points=[];" parent="TgfNzg3K9k1XrxcihakO-66" vertex="1" connectable="0">
          <mxGeometry x="-0.2917" y="-1" relative="1" as="geometry">
            <mxPoint x="-1" y="-1" as="offset" />
          </mxGeometry>
        </mxCell>
        <mxCell id="TgfNzg3K9k1XrxcihakO-60" value="Check are they equal?" style="rhombus;whiteSpace=wrap;html=1;fontSize=13;spacing=18;" parent="WIyWlLk6GJQsqaUBKTNV-1" vertex="1">
          <mxGeometry x="813.4200000000001" y="1090" width="90" height="90" as="geometry" />
        </mxCell>
        <mxCell id="TgfNzg3K9k1XrxcihakO-74" style="edgeStyle=orthogonalEdgeStyle;rounded=0;orthogonalLoop=1;jettySize=auto;html=1;exitX=1;exitY=0.5;exitDx=0;exitDy=0;entryX=0;entryY=0.5;entryDx=0;entryDy=0;" parent="WIyWlLk6GJQsqaUBKTNV-1" source="TgfNzg3K9k1XrxcihakO-71" target="TgfNzg3K9k1XrxcihakO-54" edge="1">
          <mxGeometry relative="1" as="geometry">
            <Array as="points">
              <mxPoint x="630" y="1220" />
              <mxPoint x="740" y="1220" />
              <mxPoint x="740" y="1316" />
            </Array>
          </mxGeometry>
        </mxCell>
        <mxCell id="TgfNzg3K9k1XrxcihakO-77" value="Yes" style="edgeLabel;html=1;align=center;verticalAlign=middle;resizable=0;points=[];" parent="TgfNzg3K9k1XrxcihakO-74" vertex="1" connectable="0">
          <mxGeometry x="-0.2743" relative="1" as="geometry">
            <mxPoint x="-31" y="-1" as="offset" />
          </mxGeometry>
        </mxCell>
        <mxCell id="TgfNzg3K9k1XrxcihakO-80" style="edgeStyle=orthogonalEdgeStyle;rounded=0;orthogonalLoop=1;jettySize=auto;html=1;exitX=0.5;exitY=1;exitDx=0;exitDy=0;endArrow=none;endFill=0;entryX=0.5;entryY=1;entryDx=0;entryDy=0;" parent="WIyWlLk6GJQsqaUBKTNV-1" source="TgfNzg3K9k1XrxcihakO-71" target="TgfNzg3K9k1XrxcihakO-36" edge="1">
          <mxGeometry relative="1" as="geometry">
            <mxPoint x="1218.42" y="1137.5" as="targetPoint" />
            <mxPoint x="878.4200000000001" y="1367.5" as="sourcePoint" />
            <Array as="points">
              <mxPoint x="580" y="1269" />
              <mxPoint x="580" y="1360" />
              <mxPoint x="1030" y="1360" />
            </Array>
          </mxGeometry>
        </mxCell>
        <mxCell id="TgfNzg3K9k1XrxcihakO-81" value="No" style="edgeLabel;html=1;align=center;verticalAlign=middle;resizable=0;points=[];rotation=0;" parent="TgfNzg3K9k1XrxcihakO-80" vertex="1" connectable="0">
          <mxGeometry x="-0.4004" y="1" relative="1" as="geometry">
            <mxPoint x="-132" y="-69" as="offset" />
          </mxGeometry>
        </mxCell>
        <mxCell id="TgfNzg3K9k1XrxcihakO-71" value="Check file exist at local?" style="rhombus;whiteSpace=wrap;html=1;fontSize=10;spacing=13;" parent="WIyWlLk6GJQsqaUBKTNV-1" vertex="1">
          <mxGeometry x="532.5000000000001" y="1169" width="97.5" height="100" as="geometry" />
        </mxCell>
        <mxCell id="TgfNzg3K9k1XrxcihakO-85" value="Calculate checksum of local file" style="rounded=1;whiteSpace=wrap;html=1;fontSize=12;glass=0;strokeWidth=1;shadow=0;spacing=1;verticalAlign=middle;" parent="WIyWlLk6GJQsqaUBKTNV-1" vertex="1">
          <mxGeometry x="760.4200000000001" y="1258.75" width="196" height="27.5" as="geometry" />
        </mxCell>
        <mxCell id="TgfNzg3K9k1XrxcihakO-89" value="Is in .syncignore file?" style="rhombus;whiteSpace=wrap;html=1;fontSize=13;spacing=18;" parent="WIyWlLk6GJQsqaUBKTNV-1" vertex="1">
          <mxGeometry x="370" y="1080" width="90" height="90" as="geometry" />
        </mxCell>
        <mxCell id="n75NDWezAnSLOP8QhScl-2" style="edgeStyle=orthogonalEdgeStyle;rounded=0;orthogonalLoop=1;jettySize=auto;html=1;exitX=1;exitY=0.5;exitDx=0;exitDy=0;entryX=0;entryY=0.5;entryDx=0;entryDy=0;" edge="1" parent="WIyWlLk6GJQsqaUBKTNV-1" source="n75NDWezAnSLOP8QhScl-0" target="n75NDWezAnSLOP8QhScl-1">
          <mxGeometry relative="1" as="geometry" />
        </mxCell>
        <mxCell id="n75NDWezAnSLOP8QhScl-4" value="No" style="edgeLabel;html=1;align=center;verticalAlign=middle;resizable=0;points=[];" vertex="1" connectable="0" parent="n75NDWezAnSLOP8QhScl-2">
          <mxGeometry x="-0.0393" y="-1" relative="1" as="geometry">
            <mxPoint as="offset" />
          </mxGeometry>
        </mxCell>
        <mxCell id="n75NDWezAnSLOP8QhScl-5" style="edgeStyle=orthogonalEdgeStyle;rounded=0;orthogonalLoop=1;jettySize=auto;html=1;exitX=0.5;exitY=1;exitDx=0;exitDy=0;entryX=0.5;entryY=0;entryDx=0;entryDy=0;" edge="1" parent="WIyWlLk6GJQsqaUBKTNV-1" source="n75NDWezAnSLOP8QhScl-0" target="TgfNzg3K9k1XrxcihakO-16">
          <mxGeometry relative="1" as="geometry" />
        </mxCell>
        <mxCell id="n75NDWezAnSLOP8QhScl-6" value="Yes" style="edgeLabel;html=1;align=center;verticalAlign=middle;resizable=0;points=[];" vertex="1" connectable="0" parent="n75NDWezAnSLOP8QhScl-5">
          <mxGeometry x="-0.1524" y="2" relative="1" as="geometry">
            <mxPoint x="-3" as="offset" />
          </mxGeometry>
        </mxCell>
        <mxCell id="n75NDWezAnSLOP8QhScl-0" value="Check if .tmp directory exist" style="rounded=1;whiteSpace=wrap;html=1;fontSize=10;glass=0;strokeWidth=1;shadow=0;spacingTop=4;spacing=5;" vertex="1" parent="WIyWlLk6GJQsqaUBKTNV-1">
          <mxGeometry x="66" y="480" width="120" height="40" as="geometry" />
        </mxCell>
        <mxCell id="n75NDWezAnSLOP8QhScl-3" style="edgeStyle=orthogonalEdgeStyle;rounded=0;orthogonalLoop=1;jettySize=auto;html=1;exitX=0.5;exitY=1;exitDx=0;exitDy=0;entryX=1;entryY=0.5;entryDx=0;entryDy=0;" edge="1" parent="WIyWlLk6GJQsqaUBKTNV-1" source="n75NDWezAnSLOP8QhScl-1" target="TgfNzg3K9k1XrxcihakO-16">
          <mxGeometry relative="1" as="geometry">
            <Array as="points">
              <mxPoint x="326" y="580" />
            </Array>
          </mxGeometry>
        </mxCell>
        <mxCell id="n75NDWezAnSLOP8QhScl-1" value="Create .tmp directory on local server" style="rounded=1;whiteSpace=wrap;html=1;fontSize=10;glass=0;strokeWidth=1;shadow=0;spacingTop=4;spacing=5;" vertex="1" parent="WIyWlLk6GJQsqaUBKTNV-1">
          <mxGeometry x="266" y="480" width="120" height="40" as="geometry" />
        </mxCell>
        <mxCell id="n75NDWezAnSLOP8QhScl-8" style="edgeStyle=orthogonalEdgeStyle;rounded=0;orthogonalLoop=1;jettySize=auto;html=1;exitX=0.5;exitY=1;exitDx=0;exitDy=0;entryX=0.5;entryY=0;entryDx=0;entryDy=0;" edge="1" parent="WIyWlLk6GJQsqaUBKTNV-1" source="n75NDWezAnSLOP8QhScl-7" target="TgfNzg3K9k1XrxcihakO-34">
          <mxGeometry relative="1" as="geometry" />
        </mxCell>
        <mxCell id="n75NDWezAnSLOP8QhScl-7" value="Print &quot;Server is up to date&quot;" style="shape=parallelogram;perimeter=parallelogramPerimeter;fixedSize=1;align=center;fontSize=10;verticalAlign=middle;whiteSpace=wrap;html=1;fontFamily=Helvetica;fontStyle=0;spacingTop=2;spacing=21;spacingBottom=4;" vertex="1" parent="WIyWlLk6GJQsqaUBKTNV-1">
          <mxGeometry x="167" y="1322.5" width="168" height="40" as="geometry" />
        </mxCell>
        <mxCell id="n75NDWezAnSLOP8QhScl-33" style="edgeStyle=orthogonalEdgeStyle;rounded=0;orthogonalLoop=1;jettySize=auto;html=1;exitX=0.5;exitY=1;exitDx=0;exitDy=0;entryX=0;entryY=0.5;entryDx=0;entryDy=0;" edge="1" parent="WIyWlLk6GJQsqaUBKTNV-1" source="n75NDWezAnSLOP8QhScl-10" target="n75NDWezAnSLOP8QhScl-14">
          <mxGeometry relative="1" as="geometry">
            <Array as="points">
              <mxPoint x="415" y="1500" />
              <mxPoint x="120" y="1500" />
              <mxPoint x="120" y="815" />
            </Array>
          </mxGeometry>
        </mxCell>
        <mxCell id="n75NDWezAnSLOP8QhScl-37" value="Yes" style="edgeLabel;html=1;align=center;verticalAlign=middle;resizable=0;points=[];" vertex="1" connectable="0" parent="n75NDWezAnSLOP8QhScl-33">
          <mxGeometry x="-0.9534" relative="1" as="geometry">
            <mxPoint as="offset" />
          </mxGeometry>
        </mxCell>
        <mxCell id="n75NDWezAnSLOP8QhScl-10" value="Is directory?" style="rhombus;whiteSpace=wrap;html=1;fontSize=13;spacing=18;spacingBottom=6;" vertex="1" parent="WIyWlLk6GJQsqaUBKTNV-1">
          <mxGeometry x="370" y="1322.5" width="90" height="90" as="geometry" />
        </mxCell>
        <mxCell id="n75NDWezAnSLOP8QhScl-11" style="edgeStyle=orthogonalEdgeStyle;rounded=0;orthogonalLoop=1;jettySize=auto;html=1;exitX=1;exitY=0.5;exitDx=0;exitDy=0;entryX=0;entryY=0.5;entryDx=0;entryDy=0;" edge="1" parent="WIyWlLk6GJQsqaUBKTNV-1" source="n75NDWezAnSLOP8QhScl-10" target="TgfNzg3K9k1XrxcihakO-71">
          <mxGeometry relative="1" as="geometry">
            <Array as="points">
              <mxPoint x="483" y="1368" />
              <mxPoint x="483" y="1219" />
            </Array>
          </mxGeometry>
        </mxCell>
        <mxCell id="n75NDWezAnSLOP8QhScl-12" value="No" style="edgeLabel;html=1;align=center;verticalAlign=middle;resizable=0;points=[];" vertex="1" connectable="0" parent="n75NDWezAnSLOP8QhScl-11">
          <mxGeometry x="-0.668" y="-1" relative="1" as="geometry">
            <mxPoint x="-2" y="-74" as="offset" />
          </mxGeometry>
        </mxCell>
        <mxCell id="n75NDWezAnSLOP8QhScl-18" value="" style="edgeStyle=orthogonalEdgeStyle;rounded=0;orthogonalLoop=1;jettySize=auto;html=1;" edge="1" parent="WIyWlLk6GJQsqaUBKTNV-1" source="n75NDWezAnSLOP8QhScl-14" target="n75NDWezAnSLOP8QhScl-17">
          <mxGeometry relative="1" as="geometry" />
        </mxCell>
        <mxCell id="n75NDWezAnSLOP8QhScl-23" value="No" style="edgeLabel;html=1;align=center;verticalAlign=middle;resizable=0;points=[];" vertex="1" connectable="0" parent="n75NDWezAnSLOP8QhScl-18">
          <mxGeometry x="-0.2604" y="-2" relative="1" as="geometry">
            <mxPoint y="-2" as="offset" />
          </mxGeometry>
        </mxCell>
        <mxCell id="n75NDWezAnSLOP8QhScl-14" value="Check directory is exist in local server?" style="rhombus;whiteSpace=wrap;html=1;rounded=1;glass=0;strokeWidth=1;shadow=0;fontSize=10;spacing=15;" vertex="1" parent="WIyWlLk6GJQsqaUBKTNV-1">
          <mxGeometry x="197" y="760" width="104" height="110" as="geometry" />
        </mxCell>
        <mxCell id="n75NDWezAnSLOP8QhScl-26" style="edgeStyle=orthogonalEdgeStyle;rounded=0;orthogonalLoop=1;jettySize=auto;html=1;entryX=1;entryY=0.5;entryDx=0;entryDy=0;" edge="1" parent="WIyWlLk6GJQsqaUBKTNV-1" source="n75NDWezAnSLOP8QhScl-17" target="n75NDWezAnSLOP8QhScl-21">
          <mxGeometry relative="1" as="geometry">
            <Array as="points">
              <mxPoint x="438" y="955" />
            </Array>
          </mxGeometry>
        </mxCell>
        <mxCell id="n75NDWezAnSLOP8QhScl-17" value="Create directory" style="whiteSpace=wrap;html=1;fontSize=10;rounded=1;glass=0;strokeWidth=1;shadow=0;spacing=15;" vertex="1" parent="WIyWlLk6GJQsqaUBKTNV-1">
          <mxGeometry x="383" y="802.5" width="110" height="25" as="geometry" />
        </mxCell>
        <mxCell id="n75NDWezAnSLOP8QhScl-22" style="edgeStyle=orthogonalEdgeStyle;rounded=0;orthogonalLoop=1;jettySize=auto;html=1;exitX=0.5;exitY=1;exitDx=0;exitDy=0;entryX=0.5;entryY=0;entryDx=0;entryDy=0;" edge="1" parent="WIyWlLk6GJQsqaUBKTNV-1" source="n75NDWezAnSLOP8QhScl-14" target="n75NDWezAnSLOP8QhScl-21">
          <mxGeometry relative="1" as="geometry">
            <mxPoint x="248.5" y="945" as="sourcePoint" />
          </mxGeometry>
        </mxCell>
        <mxCell id="n75NDWezAnSLOP8QhScl-27" value="Yes" style="edgeLabel;html=1;align=center;verticalAlign=middle;resizable=0;points=[];" vertex="1" connectable="0" parent="n75NDWezAnSLOP8QhScl-22">
          <mxGeometry x="-0.3277" y="1" relative="1" as="geometry">
            <mxPoint as="offset" />
          </mxGeometry>
        </mxCell>
        <mxCell id="n75NDWezAnSLOP8QhScl-30" style="edgeStyle=orthogonalEdgeStyle;rounded=0;orthogonalLoop=1;jettySize=auto;html=1;exitX=0.5;exitY=1;exitDx=0;exitDy=0;entryX=0.5;entryY=0;entryDx=0;entryDy=0;" edge="1" parent="WIyWlLk6GJQsqaUBKTNV-1" source="n75NDWezAnSLOP8QhScl-21" target="n75NDWezAnSLOP8QhScl-28">
          <mxGeometry relative="1" as="geometry" />
        </mxCell>
        <mxCell id="n75NDWezAnSLOP8QhScl-21" value="Change local directory to this path" style="whiteSpace=wrap;html=1;fontSize=10;rounded=1;glass=0;strokeWidth=1;shadow=0;spacing=15;" vertex="1" parent="WIyWlLk6GJQsqaUBKTNV-1">
          <mxGeometry x="175.75" y="940" width="149" height="30" as="geometry" />
        </mxCell>
        <mxCell id="n75NDWezAnSLOP8QhScl-25" style="edgeStyle=orthogonalEdgeStyle;rounded=0;orthogonalLoop=1;jettySize=auto;html=1;exitX=0.5;exitY=1;exitDx=0;exitDy=0;entryX=0.5;entryY=0;entryDx=0;entryDy=0;" edge="1" parent="WIyWlLk6GJQsqaUBKTNV-1" source="n75NDWezAnSLOP8QhScl-24" target="n75NDWezAnSLOP8QhScl-14">
          <mxGeometry relative="1" as="geometry" />
        </mxCell>
        <mxCell id="n75NDWezAnSLOP8QhScl-24" value="Change remote directory to this path" style="whiteSpace=wrap;html=1;fontSize=10;rounded=1;glass=0;strokeWidth=1;shadow=0;spacing=15;" vertex="1" parent="WIyWlLk6GJQsqaUBKTNV-1">
          <mxGeometry x="52.75" y="680" width="147.5" height="30" as="geometry" />
        </mxCell>
        <mxCell id="n75NDWezAnSLOP8QhScl-31" style="edgeStyle=orthogonalEdgeStyle;rounded=0;orthogonalLoop=1;jettySize=auto;html=1;exitX=0.5;exitY=1;exitDx=0;exitDy=0;entryX=0.5;entryY=0;entryDx=0;entryDy=0;" edge="1" parent="WIyWlLk6GJQsqaUBKTNV-1" source="n75NDWezAnSLOP8QhScl-28" target="TgfNzg3K9k1XrxcihakO-20">
          <mxGeometry relative="1" as="geometry" />
        </mxCell>
        <mxCell id="n75NDWezAnSLOP8QhScl-28" value="List files" style="rounded=1;whiteSpace=wrap;html=1;fontSize=12;glass=0;strokeWidth=1;shadow=0;" vertex="1" parent="WIyWlLk6GJQsqaUBKTNV-1">
          <mxGeometry x="195.25" y="1000" width="110" height="20" as="geometry" />
        </mxCell>
        <mxCell id="n75NDWezAnSLOP8QhScl-35" style="edgeStyle=orthogonalEdgeStyle;rounded=0;orthogonalLoop=1;jettySize=auto;html=1;exitX=0.5;exitY=1;exitDx=0;exitDy=0;entryX=0.5;entryY=0;entryDx=0;entryDy=0;" edge="1" parent="WIyWlLk6GJQsqaUBKTNV-1" source="n75NDWezAnSLOP8QhScl-34" target="n75NDWezAnSLOP8QhScl-7">
          <mxGeometry relative="1" as="geometry" />
        </mxCell>
        <mxCell id="n75NDWezAnSLOP8QhScl-36" value="Yes" style="edgeLabel;html=1;align=center;verticalAlign=middle;resizable=0;points=[];" vertex="1" connectable="0" parent="n75NDWezAnSLOP8QhScl-35">
          <mxGeometry x="-0.1997" relative="1" as="geometry">
            <mxPoint as="offset" />
          </mxGeometry>
        </mxCell>
        <mxCell id="n75NDWezAnSLOP8QhScl-34" value="in root directory?" style="rhombus;whiteSpace=wrap;html=1;fontSize=12;spacing=11;" vertex="1" parent="WIyWlLk6GJQsqaUBKTNV-1">
          <mxGeometry x="205.25" y="1200" width="90" height="90" as="geometry" />
        </mxCell>
      </root>
    </mxGraphModel>
  </diagram>
</mxfile>
